<mxfile host="Electron" modified="2023-05-03T16:30:09.165Z" agent="Mozilla/5.0 (Windows NT 10.0; Win64; x64) AppleWebKit/537.36 (KHTML, like Gecko) draw.io/21.1.2 Chrome/106.0.5249.199 Electron/21.4.3 Safari/537.36" etag="IhhjnCGjof7GZFP5GWRN" version="21.1.2" type="device">
  <diagram name="Page-1" id="KstOUcdd45v1drFIA0Kz">
    <mxGraphModel dx="5736" dy="3344" grid="1" gridSize="10" guides="1" tooltips="1" connect="1" arrows="1" fold="1" page="1" pageScale="1" pageWidth="5000" pageHeight="5000" math="0" shadow="0">
      <root>
        <mxCell id="0" />
        <mxCell id="1" parent="0" />
        <mxCell id="5AUsYKZ6JyyaCuf6r-LG-1" value="" style="rounded=0;whiteSpace=wrap;html=1;" parent="1" vertex="1">
          <mxGeometry x="500" y="470" width="130" height="920" as="geometry" />
        </mxCell>
        <mxCell id="5AUsYKZ6JyyaCuf6r-LG-10" value="Engineer" style="shape=umlActor;verticalLabelPosition=bottom;verticalAlign=top;html=1;outlineConnect=0;" parent="1" vertex="1">
          <mxGeometry x="240" y="919" width="30" height="60" as="geometry" />
        </mxCell>
        <mxCell id="5AUsYKZ6JyyaCuf6r-LG-11" value="" style="endArrow=classic;html=1;rounded=0;entryX=0;entryY=0.391;entryDx=0;entryDy=0;entryPerimeter=0;" parent="1" target="5AUsYKZ6JyyaCuf6r-LG-29" edge="1">
          <mxGeometry width="50" height="50" relative="1" as="geometry">
            <mxPoint x="280" y="939" as="sourcePoint" />
            <mxPoint x="480" y="915.9999999999999" as="targetPoint" />
          </mxGeometry>
        </mxCell>
        <mxCell id="5AUsYKZ6JyyaCuf6r-LG-12" value="Send Tool Request" style="edgeLabel;html=1;align=center;verticalAlign=middle;resizable=0;points=[];rotation=340;" parent="5AUsYKZ6JyyaCuf6r-LG-11" vertex="1" connectable="0">
          <mxGeometry x="-0.2267" y="-1" relative="1" as="geometry">
            <mxPoint x="62" y="-24" as="offset" />
          </mxGeometry>
        </mxCell>
        <mxCell id="5AUsYKZ6JyyaCuf6r-LG-14" value="" style="endArrow=classic;html=1;rounded=0;entryX=0;entryY=0.5;entryDx=0;entryDy=0;" parent="1" target="5AUsYKZ6JyyaCuf6r-LG-29" edge="1">
          <mxGeometry width="50" height="50" relative="1" as="geometry">
            <mxPoint x="280" y="939" as="sourcePoint" />
            <mxPoint x="478.32000000000016" y="951.34" as="targetPoint" />
          </mxGeometry>
        </mxCell>
        <mxCell id="5AUsYKZ6JyyaCuf6r-LG-15" value="View Tool Request" style="edgeLabel;html=1;align=center;verticalAlign=middle;resizable=0;points=[];rotation=346;" parent="5AUsYKZ6JyyaCuf6r-LG-14" vertex="1" connectable="0">
          <mxGeometry x="-0.1353" relative="1" as="geometry">
            <mxPoint x="13" y="1" as="offset" />
          </mxGeometry>
        </mxCell>
        <mxCell id="5AUsYKZ6JyyaCuf6r-LG-16" value="Lab Technician" style="shape=umlActor;verticalLabelPosition=bottom;verticalAlign=top;html=1;outlineConnect=0;" parent="1" vertex="1">
          <mxGeometry x="240" y="1090" width="30" height="60" as="geometry" />
        </mxCell>
        <mxCell id="5AUsYKZ6JyyaCuf6r-LG-19" value="" style="endArrow=classic;html=1;rounded=0;entryX=0;entryY=1;entryDx=0;entryDy=0;" parent="1" target="5AUsYKZ6JyyaCuf6r-LG-29" edge="1">
          <mxGeometry width="50" height="50" relative="1" as="geometry">
            <mxPoint x="280" y="1110" as="sourcePoint" />
            <mxPoint x="479" y="1152.1999999999998" as="targetPoint" />
          </mxGeometry>
        </mxCell>
        <mxCell id="5AUsYKZ6JyyaCuf6r-LG-20" value="Send Tool Request" style="edgeLabel;html=1;align=center;verticalAlign=middle;resizable=0;points=[];rotation=337;" parent="5AUsYKZ6JyyaCuf6r-LG-19" vertex="1" connectable="0">
          <mxGeometry x="-0.2364" y="-2" relative="1" as="geometry">
            <mxPoint x="23" y="-11" as="offset" />
          </mxGeometry>
        </mxCell>
        <mxCell id="5AUsYKZ6JyyaCuf6r-LG-21" value="" style="endArrow=classic;html=1;rounded=0;entryX=0;entryY=0;entryDx=0;entryDy=0;" parent="1" edge="1" target="5AUsYKZ6JyyaCuf6r-LG-30">
          <mxGeometry width="50" height="50" relative="1" as="geometry">
            <mxPoint x="280" y="1110" as="sourcePoint" />
            <mxPoint x="480.9200000000001" y="1052.8000000000002" as="targetPoint" />
          </mxGeometry>
        </mxCell>
        <mxCell id="5AUsYKZ6JyyaCuf6r-LG-22" value="Send Lab Report" style="edgeLabel;html=1;align=center;verticalAlign=middle;resizable=0;points=[];rotation=0;" parent="5AUsYKZ6JyyaCuf6r-LG-21" vertex="1" connectable="0">
          <mxGeometry x="-0.2359" y="-2" relative="1" as="geometry">
            <mxPoint x="69" y="-3" as="offset" />
          </mxGeometry>
        </mxCell>
        <mxCell id="5AUsYKZ6JyyaCuf6r-LG-23" value="Lawyer" style="shape=umlActor;verticalLabelPosition=bottom;verticalAlign=top;html=1;outlineConnect=0;" parent="1" vertex="1">
          <mxGeometry x="240" y="1271" width="30" height="60" as="geometry" />
        </mxCell>
        <mxCell id="5AUsYKZ6JyyaCuf6r-LG-24" value="" style="endArrow=classic;html=1;rounded=0;entryX=-0.024;entryY=0.446;entryDx=0;entryDy=0;entryPerimeter=0;" parent="1" edge="1">
          <mxGeometry width="50" height="50" relative="1" as="geometry">
            <mxPoint x="280" y="1291" as="sourcePoint" />
            <mxPoint x="479.03999999999996" y="1290.1" as="targetPoint" />
          </mxGeometry>
        </mxCell>
        <mxCell id="5AUsYKZ6JyyaCuf6r-LG-25" value="Display Legal Issues" style="edgeLabel;html=1;align=center;verticalAlign=middle;resizable=0;points=[];rotation=0;" parent="5AUsYKZ6JyyaCuf6r-LG-24" vertex="1" connectable="0">
          <mxGeometry x="-0.2194" y="-5" relative="1" as="geometry">
            <mxPoint x="12" y="-5" as="offset" />
          </mxGeometry>
        </mxCell>
        <mxCell id="5AUsYKZ6JyyaCuf6r-LG-29" value="&lt;font style=&quot;font-size: 6px;&quot;&gt;Request Management&lt;/font&gt;" style="rounded=0;whiteSpace=wrap;html=1;" parent="1" vertex="1">
          <mxGeometry x="480" y="800" width="40" height="179" as="geometry" />
        </mxCell>
        <mxCell id="5AUsYKZ6JyyaCuf6r-LG-30" value="&lt;font style=&quot;font-size: 6px;&quot;&gt;Laboratory Management&lt;/font&gt;" style="rounded=0;whiteSpace=wrap;html=1;" parent="1" vertex="1">
          <mxGeometry x="480" y="1150" width="40" height="80" as="geometry" />
        </mxCell>
        <mxCell id="5AUsYKZ6JyyaCuf6r-LG-31" value="&lt;font style=&quot;font-size: 6px;&quot;&gt;Legal&lt;br&gt;affair Management&lt;br&gt;&lt;/font&gt;" style="rounded=0;whiteSpace=wrap;html=1;" parent="1" vertex="1">
          <mxGeometry x="480" y="1251" width="40" height="80" as="geometry" />
        </mxCell>
        <mxCell id="5AUsYKZ6JyyaCuf6r-LG-32" value="Company Manager" style="shape=umlActor;verticalLabelPosition=bottom;verticalAlign=top;html=1;outlineConnect=0;" parent="1" vertex="1">
          <mxGeometry x="870" y="500" width="30" height="60" as="geometry" />
        </mxCell>
        <mxCell id="5AUsYKZ6JyyaCuf6r-LG-34" value="" style="endArrow=classic;html=1;rounded=0;entryX=1;entryY=0;entryDx=0;entryDy=0;exitX=0;exitY=0.3333333333333333;exitDx=0;exitDy=0;exitPerimeter=0;" parent="1" source="5AUsYKZ6JyyaCuf6r-LG-32" target="5xZvFCeSpVlh9QyVR8qn-2" edge="1">
          <mxGeometry width="50" height="50" relative="1" as="geometry">
            <mxPoint x="790" y="520" as="sourcePoint" />
            <mxPoint x="650" y="520" as="targetPoint" />
          </mxGeometry>
        </mxCell>
        <mxCell id="5AUsYKZ6JyyaCuf6r-LG-35" value="Validate Hiring Requests" style="edgeLabel;html=1;align=center;verticalAlign=middle;resizable=0;points=[];rotation=-15;" parent="5AUsYKZ6JyyaCuf6r-LG-34" vertex="1" connectable="0">
          <mxGeometry x="0.1479" relative="1" as="geometry">
            <mxPoint x="16" as="offset" />
          </mxGeometry>
        </mxCell>
        <mxCell id="5AUsYKZ6JyyaCuf6r-LG-36" value="Department" style="shape=umlActor;verticalLabelPosition=bottom;verticalAlign=top;html=1;outlineConnect=0;" parent="1" vertex="1">
          <mxGeometry x="150" y="1120" width="30" height="60" as="geometry" />
        </mxCell>
        <mxCell id="5AUsYKZ6JyyaCuf6r-LG-40" value="" style="endArrow=classic;html=1;rounded=0;entryX=0;entryY=0.75;entryDx=0;entryDy=0;" parent="1" target="5AUsYKZ6JyyaCuf6r-LG-29" edge="1">
          <mxGeometry width="50" height="50" relative="1" as="geometry">
            <mxPoint x="190" y="1140" as="sourcePoint" />
            <mxPoint x="-70" y="1141" as="targetPoint" />
            <Array as="points">
              <mxPoint x="210" y="1060" />
            </Array>
          </mxGeometry>
        </mxCell>
        <mxCell id="5AUsYKZ6JyyaCuf6r-LG-46" value="Manage Employee Requests" style="edgeLabel;html=1;align=center;verticalAlign=middle;resizable=0;points=[];rotation=336;" parent="5AUsYKZ6JyyaCuf6r-LG-40" vertex="1" connectable="0">
          <mxGeometry x="0.7576" y="-1" relative="1" as="geometry">
            <mxPoint x="-149" y="67" as="offset" />
          </mxGeometry>
        </mxCell>
        <mxCell id="5AUsYKZ6JyyaCuf6r-LG-42" value="" style="endArrow=classic;html=1;rounded=0;entryX=0;entryY=0.838;entryDx=0;entryDy=0;entryPerimeter=0;" parent="1" target="5AUsYKZ6JyyaCuf6r-LG-29" edge="1">
          <mxGeometry width="50" height="50" relative="1" as="geometry">
            <mxPoint x="190" y="1140" as="sourcePoint" />
            <mxPoint x="-70" y="1206" as="targetPoint" />
            <Array as="points">
              <mxPoint x="240" y="1070" />
            </Array>
          </mxGeometry>
        </mxCell>
        <mxCell id="5AUsYKZ6JyyaCuf6r-LG-48" value="Validating Employee Requests" style="edgeLabel;html=1;align=center;verticalAlign=middle;resizable=0;points=[];rotation=336;" parent="5AUsYKZ6JyyaCuf6r-LG-42" vertex="1" connectable="0">
          <mxGeometry x="0.6066" y="-1" relative="1" as="geometry">
            <mxPoint x="-58" y="28" as="offset" />
          </mxGeometry>
        </mxCell>
        <mxCell id="5AUsYKZ6JyyaCuf6r-LG-49" value="&lt;font style=&quot;font-size: 6px;&quot;&gt;Transportation&lt;br&gt;Management&lt;br&gt;&lt;/font&gt;" style="rounded=0;whiteSpace=wrap;html=1;" parent="1" vertex="1">
          <mxGeometry x="610" y="757" width="40" height="83" as="geometry" />
        </mxCell>
        <mxCell id="5AUsYKZ6JyyaCuf6r-LG-50" value="Transportation Company" style="shape=umlActor;verticalLabelPosition=bottom;verticalAlign=top;html=1;outlineConnect=0;" parent="1" vertex="1">
          <mxGeometry x="870" y="720" width="30" height="60" as="geometry" />
        </mxCell>
        <mxCell id="5AUsYKZ6JyyaCuf6r-LG-51" value="Transportation Department" style="shape=umlActor;verticalLabelPosition=bottom;verticalAlign=top;html=1;outlineConnect=0;" parent="1" vertex="1">
          <mxGeometry x="870" y="820" width="30" height="60" as="geometry" />
        </mxCell>
        <mxCell id="5AUsYKZ6JyyaCuf6r-LG-52" value="" style="endArrow=classic;html=1;rounded=0;entryX=1;entryY=0;entryDx=0;entryDy=0;" parent="1" target="5AUsYKZ6JyyaCuf6r-LG-49" edge="1">
          <mxGeometry width="50" height="50" relative="1" as="geometry">
            <mxPoint x="860" y="740" as="sourcePoint" />
            <mxPoint x="770" y="780" as="targetPoint" />
          </mxGeometry>
        </mxCell>
        <mxCell id="5AUsYKZ6JyyaCuf6r-LG-53" value="Managing Employee Transportation" style="edgeLabel;html=1;align=center;verticalAlign=middle;resizable=0;points=[];rotation=356;" parent="5AUsYKZ6JyyaCuf6r-LG-52" vertex="1" connectable="0">
          <mxGeometry x="0.4482" y="1" relative="1" as="geometry">
            <mxPoint x="42" y="-5" as="offset" />
          </mxGeometry>
        </mxCell>
        <mxCell id="5AUsYKZ6JyyaCuf6r-LG-54" value="" style="endArrow=classic;html=1;rounded=0;entryX=1;entryY=0.5;entryDx=0;entryDy=0;" parent="1" target="5AUsYKZ6JyyaCuf6r-LG-49" edge="1">
          <mxGeometry width="50" height="50" relative="1" as="geometry">
            <mxPoint x="860" y="740" as="sourcePoint" />
            <mxPoint x="770" y="780" as="targetPoint" />
          </mxGeometry>
        </mxCell>
        <mxCell id="5AUsYKZ6JyyaCuf6r-LG-56" value="&lt;font style=&quot;font-size: 9px;&quot;&gt;Contacting Transportation Companies&lt;/font&gt;" style="edgeLabel;html=1;align=center;verticalAlign=middle;resizable=0;points=[];rotation=344;" parent="5AUsYKZ6JyyaCuf6r-LG-54" vertex="1" connectable="0">
          <mxGeometry x="0.1236" y="-1" relative="1" as="geometry">
            <mxPoint x="-2" y="2" as="offset" />
          </mxGeometry>
        </mxCell>
        <mxCell id="5AUsYKZ6JyyaCuf6r-LG-55" value="Contacting Transportation Companies" style="endArrow=classic;html=1;rounded=0;entryX=1;entryY=1;entryDx=0;entryDy=0;exitX=0;exitY=0.3333333333333333;exitDx=0;exitDy=0;exitPerimeter=0;" parent="1" source="5AUsYKZ6JyyaCuf6r-LG-51" target="5AUsYKZ6JyyaCuf6r-LG-49" edge="1">
          <mxGeometry width="50" height="50" relative="1" as="geometry">
            <mxPoint x="720" y="830" as="sourcePoint" />
            <mxPoint x="770" y="780" as="targetPoint" />
          </mxGeometry>
        </mxCell>
        <mxCell id="5AUsYKZ6JyyaCuf6r-LG-57" value="&lt;font style=&quot;font-size: 6px;&quot;&gt;Insurance Management&lt;/font&gt;" style="rounded=0;whiteSpace=wrap;html=1;" parent="1" vertex="1">
          <mxGeometry x="610" y="930" width="40" height="80" as="geometry" />
        </mxCell>
        <mxCell id="5AUsYKZ6JyyaCuf6r-LG-58" value="Insurance Department" style="shape=umlActor;verticalLabelPosition=bottom;verticalAlign=top;html=1;outlineConnect=0;" parent="1" vertex="1">
          <mxGeometry x="870" y="910" width="30" height="60" as="geometry" />
        </mxCell>
        <mxCell id="5AUsYKZ6JyyaCuf6r-LG-59" value="Insurance Company" style="shape=umlActor;verticalLabelPosition=bottom;verticalAlign=top;html=1;outlineConnect=0;" parent="1" vertex="1">
          <mxGeometry x="870" y="990" width="30" height="60" as="geometry" />
        </mxCell>
        <mxCell id="5AUsYKZ6JyyaCuf6r-LG-60" value="" style="endArrow=classic;html=1;rounded=0;entryX=1;entryY=0;entryDx=0;entryDy=0;" parent="1" target="5AUsYKZ6JyyaCuf6r-LG-57" edge="1">
          <mxGeometry width="50" height="50" relative="1" as="geometry">
            <mxPoint x="860" y="930" as="sourcePoint" />
            <mxPoint x="790" y="920" as="targetPoint" />
          </mxGeometry>
        </mxCell>
        <mxCell id="5AUsYKZ6JyyaCuf6r-LG-62" value="Managing Insurance" style="edgeLabel;html=1;align=center;verticalAlign=middle;resizable=0;points=[];" parent="5AUsYKZ6JyyaCuf6r-LG-60" vertex="1" connectable="0">
          <mxGeometry x="0.1619" y="-2" relative="1" as="geometry">
            <mxPoint x="-18" y="2" as="offset" />
          </mxGeometry>
        </mxCell>
        <mxCell id="5AUsYKZ6JyyaCuf6r-LG-61" value="" style="endArrow=classic;html=1;rounded=0;entryX=1;entryY=1;entryDx=0;entryDy=0;" parent="1" target="5AUsYKZ6JyyaCuf6r-LG-57" edge="1">
          <mxGeometry width="50" height="50" relative="1" as="geometry">
            <mxPoint x="860" y="1010" as="sourcePoint" />
            <mxPoint x="790" y="920" as="targetPoint" />
          </mxGeometry>
        </mxCell>
        <mxCell id="5AUsYKZ6JyyaCuf6r-LG-63" value="Managing insurance" style="edgeLabel;html=1;align=center;verticalAlign=middle;resizable=0;points=[];" parent="5AUsYKZ6JyyaCuf6r-LG-61" vertex="1" connectable="0">
          <mxGeometry x="0.0818" y="-1" relative="1" as="geometry">
            <mxPoint x="9" y="1" as="offset" />
          </mxGeometry>
        </mxCell>
        <mxCell id="5AUsYKZ6JyyaCuf6r-LG-64" value="" style="endArrow=classic;html=1;rounded=0;entryX=1;entryY=0.5;entryDx=0;entryDy=0;" parent="1" target="5AUsYKZ6JyyaCuf6r-LG-57" edge="1">
          <mxGeometry width="50" height="50" relative="1" as="geometry">
            <mxPoint x="860" y="930" as="sourcePoint" />
            <mxPoint x="790" y="960" as="targetPoint" />
          </mxGeometry>
        </mxCell>
        <mxCell id="5AUsYKZ6JyyaCuf6r-LG-65" value="Contacting Insurance Company" style="edgeLabel;html=1;align=center;verticalAlign=middle;resizable=0;points=[];rotation=349;" parent="5AUsYKZ6JyyaCuf6r-LG-64" vertex="1" connectable="0">
          <mxGeometry x="0.5132" y="-1" relative="1" as="geometry">
            <mxPoint x="39" y="-7" as="offset" />
          </mxGeometry>
        </mxCell>
        <mxCell id="5AUsYKZ6JyyaCuf6r-LG-66" value="&lt;font style=&quot;font-size: 7px;&quot;&gt;Waste&lt;br&gt;Management&lt;br&gt;&lt;/font&gt;" style="rounded=0;whiteSpace=wrap;html=1;" parent="1" vertex="1">
          <mxGeometry x="610" y="1100" width="40" height="80" as="geometry" />
        </mxCell>
        <mxCell id="5AUsYKZ6JyyaCuf6r-LG-67" value="Recycling Department" style="shape=umlActor;verticalLabelPosition=bottom;verticalAlign=top;html=1;outlineConnect=0;" parent="1" vertex="1">
          <mxGeometry x="870" y="1120" width="30" height="60" as="geometry" />
        </mxCell>
        <mxCell id="5AUsYKZ6JyyaCuf6r-LG-68" value="" style="endArrow=classic;html=1;rounded=0;entryX=1;entryY=0;entryDx=0;entryDy=0;" parent="1" target="5AUsYKZ6JyyaCuf6r-LG-66" edge="1">
          <mxGeometry x="-0.1372" y="-3" width="50" height="50" relative="1" as="geometry">
            <mxPoint x="860" y="1140" as="sourcePoint" />
            <mxPoint x="640" y="1060" as="targetPoint" />
            <mxPoint as="offset" />
          </mxGeometry>
        </mxCell>
        <mxCell id="5AUsYKZ6JyyaCuf6r-LG-71" value="Manage Waste Recycling" style="edgeLabel;html=1;align=center;verticalAlign=middle;resizable=0;points=[];rotation=10;" parent="5AUsYKZ6JyyaCuf6r-LG-68" vertex="1" connectable="0">
          <mxGeometry x="0.4187" y="-2" relative="1" as="geometry">
            <mxPoint x="38" y="8" as="offset" />
          </mxGeometry>
        </mxCell>
        <mxCell id="5AUsYKZ6JyyaCuf6r-LG-69" value="" style="endArrow=classic;html=1;rounded=0;entryX=1;entryY=1;entryDx=0;entryDy=0;" parent="1" target="5AUsYKZ6JyyaCuf6r-LG-66" edge="1">
          <mxGeometry width="50" height="50" relative="1" as="geometry">
            <mxPoint x="860" y="1140" as="sourcePoint" />
            <mxPoint x="640" y="1060" as="targetPoint" />
          </mxGeometry>
        </mxCell>
        <mxCell id="5AUsYKZ6JyyaCuf6r-LG-72" value="Displaying the Ammount of Waste Produced" style="edgeLabel;html=1;align=center;verticalAlign=middle;resizable=0;points=[];fontSize=9;rotation=349;" parent="5AUsYKZ6JyyaCuf6r-LG-69" vertex="1" connectable="0">
          <mxGeometry x="0.2112" relative="1" as="geometry">
            <mxPoint x="17" y="-3" as="offset" />
          </mxGeometry>
        </mxCell>
        <mxCell id="5AUsYKZ6JyyaCuf6r-LG-75" value="Laboratory Department" style="shape=umlActor;verticalLabelPosition=bottom;verticalAlign=top;html=1;outlineConnect=0;" parent="1" vertex="1">
          <mxGeometry x="240" y="1170" width="30" height="60" as="geometry" />
        </mxCell>
        <mxCell id="5AUsYKZ6JyyaCuf6r-LG-77" value="" style="endArrow=classic;html=1;rounded=0;entryX=0;entryY=0.75;entryDx=0;entryDy=0;" parent="1" target="5AUsYKZ6JyyaCuf6r-LG-30" edge="1">
          <mxGeometry width="50" height="50" relative="1" as="geometry">
            <mxPoint x="280" y="1190" as="sourcePoint" />
            <mxPoint x="460" y="1070" as="targetPoint" />
          </mxGeometry>
        </mxCell>
        <mxCell id="5AUsYKZ6JyyaCuf6r-LG-79" value="Displaying Lab Reports" style="edgeLabel;html=1;align=center;verticalAlign=middle;resizable=0;points=[];rotation=7;" parent="5AUsYKZ6JyyaCuf6r-LG-77" vertex="1" connectable="0">
          <mxGeometry x="-0.2683" y="1" relative="1" as="geometry">
            <mxPoint x="57" y="4" as="offset" />
          </mxGeometry>
        </mxCell>
        <mxCell id="5AUsYKZ6JyyaCuf6r-LG-80" value="" style="endArrow=classic;html=1;rounded=0;entryX=0;entryY=1;entryDx=0;entryDy=0;" parent="1" target="5AUsYKZ6JyyaCuf6r-LG-30" edge="1">
          <mxGeometry width="50" height="50" relative="1" as="geometry">
            <mxPoint x="280" y="1190" as="sourcePoint" />
            <mxPoint x="-90" y="984" as="targetPoint" />
          </mxGeometry>
        </mxCell>
        <mxCell id="5AUsYKZ6JyyaCuf6r-LG-81" value="Send Lab Report" style="edgeLabel;html=1;align=center;verticalAlign=middle;resizable=0;points=[];rotation=11;" parent="5AUsYKZ6JyyaCuf6r-LG-80" vertex="1" connectable="0">
          <mxGeometry x="-0.2444" relative="1" as="geometry">
            <mxPoint x="55" y="15" as="offset" />
          </mxGeometry>
        </mxCell>
        <mxCell id="5AUsYKZ6JyyaCuf6r-LG-82" value="&lt;font style=&quot;font-size: 8px;&quot;&gt;Maintenance Management&lt;/font&gt;" style="rounded=0;whiteSpace=wrap;html=1;" parent="1" vertex="1">
          <mxGeometry x="520" y="450" width="80" height="40" as="geometry" />
        </mxCell>
        <mxCell id="5AUsYKZ6JyyaCuf6r-LG-85" value="Maintenance Department" style="shape=umlActor;verticalLabelPosition=bottom;verticalAlign=top;html=1;outlineConnect=0;" parent="1" vertex="1">
          <mxGeometry x="545" y="320" width="30" height="60" as="geometry" />
        </mxCell>
        <mxCell id="5AUsYKZ6JyyaCuf6r-LG-86" value="" style="endArrow=classic;html=1;rounded=0;entryX=0.5;entryY=0;entryDx=0;entryDy=0;" parent="1" target="5AUsYKZ6JyyaCuf6r-LG-82" edge="1">
          <mxGeometry width="50" height="50" relative="1" as="geometry">
            <mxPoint x="560" y="400" as="sourcePoint" />
            <mxPoint x="690" y="420" as="targetPoint" />
          </mxGeometry>
        </mxCell>
        <mxCell id="5AUsYKZ6JyyaCuf6r-LG-87" value="Display Maintenance Request" style="edgeLabel;html=1;align=center;verticalAlign=middle;resizable=0;points=[];" parent="5AUsYKZ6JyyaCuf6r-LG-86" vertex="1" connectable="0">
          <mxGeometry x="-0.251" relative="1" as="geometry">
            <mxPoint as="offset" />
          </mxGeometry>
        </mxCell>
        <mxCell id="5AUsYKZ6JyyaCuf6r-LG-90" value="Lawyer Department" style="shape=umlActor;verticalLabelPosition=bottom;verticalAlign=top;html=1;outlineConnect=0;" parent="1" vertex="1">
          <mxGeometry x="240" y="1384" width="30" height="60" as="geometry" />
        </mxCell>
        <mxCell id="5AUsYKZ6JyyaCuf6r-LG-91" value="" style="endArrow=classic;html=1;rounded=0;entryX=0;entryY=0.75;entryDx=0;entryDy=0;" parent="1" target="5AUsYKZ6JyyaCuf6r-LG-31" edge="1">
          <mxGeometry width="50" height="50" relative="1" as="geometry">
            <mxPoint x="280" y="1404" as="sourcePoint" />
            <mxPoint x="479.03999999999996" y="1403.1" as="targetPoint" />
          </mxGeometry>
        </mxCell>
        <mxCell id="5AUsYKZ6JyyaCuf6r-LG-92" value="Applying Legal Action" style="edgeLabel;html=1;align=center;verticalAlign=middle;resizable=0;points=[];rotation=335;" parent="5AUsYKZ6JyyaCuf6r-LG-91" vertex="1" connectable="0">
          <mxGeometry x="-0.2194" y="-5" relative="1" as="geometry">
            <mxPoint x="12" y="-12" as="offset" />
          </mxGeometry>
        </mxCell>
        <mxCell id="5AUsYKZ6JyyaCuf6r-LG-93" value="&lt;font style=&quot;font-size: 8px;&quot;&gt;OnSite Security&lt;/font&gt;" style="rounded=0;whiteSpace=wrap;html=1;" parent="1" vertex="1">
          <mxGeometry x="480" y="490" width="40" height="80" as="geometry" />
        </mxCell>
        <mxCell id="5AUsYKZ6JyyaCuf6r-LG-95" value="HR Department" style="shape=umlActor;verticalLabelPosition=bottom;verticalAlign=top;html=1;outlineConnect=0;" parent="1" vertex="1">
          <mxGeometry x="870" y="1250" width="30" height="60" as="geometry" />
        </mxCell>
        <mxCell id="5AUsYKZ6JyyaCuf6r-LG-96" value="&lt;font style=&quot;font-size: 6px;&quot;&gt;Scheduling Management&lt;/font&gt;" style="rounded=0;whiteSpace=wrap;html=1;" parent="1" vertex="1">
          <mxGeometry x="610" y="1225" width="40" height="80" as="geometry" />
        </mxCell>
        <mxCell id="5AUsYKZ6JyyaCuf6r-LG-97" value="" style="endArrow=classic;html=1;rounded=0;entryX=1;entryY=0.75;entryDx=0;entryDy=0;" parent="1" target="5AUsYKZ6JyyaCuf6r-LG-96" edge="1">
          <mxGeometry width="50" height="50" relative="1" as="geometry">
            <mxPoint x="860" y="1270" as="sourcePoint" />
            <mxPoint x="530" y="1150" as="targetPoint" />
          </mxGeometry>
        </mxCell>
        <mxCell id="5AUsYKZ6JyyaCuf6r-LG-101" value="Managing Shift Distribution" style="edgeLabel;html=1;align=center;verticalAlign=middle;resizable=0;points=[];rotation=356;" parent="5AUsYKZ6JyyaCuf6r-LG-97" vertex="1" connectable="0">
          <mxGeometry x="0.6902" relative="1" as="geometry">
            <mxPoint x="44" y="-3" as="offset" />
          </mxGeometry>
        </mxCell>
        <mxCell id="5AUsYKZ6JyyaCuf6r-LG-98" value="" style="endArrow=classic;html=1;rounded=0;entryX=1;entryY=0.25;entryDx=0;entryDy=0;" parent="1" target="5AUsYKZ6JyyaCuf6r-LG-96" edge="1">
          <mxGeometry width="50" height="50" relative="1" as="geometry">
            <mxPoint x="860" y="1270" as="sourcePoint" />
            <mxPoint x="780" y="1205" as="targetPoint" />
          </mxGeometry>
        </mxCell>
        <mxCell id="5AUsYKZ6JyyaCuf6r-LG-100" value="Determining Workplace of Employees" style="edgeLabel;html=1;align=center;verticalAlign=middle;resizable=0;points=[];rotation=6;fontSize=10;" parent="5AUsYKZ6JyyaCuf6r-LG-98" vertex="1" connectable="0">
          <mxGeometry x="0.4191" y="2" relative="1" as="geometry">
            <mxPoint x="37" y="1" as="offset" />
          </mxGeometry>
        </mxCell>
        <mxCell id="5AUsYKZ6JyyaCuf6r-LG-99" value="" style="endArrow=classic;html=1;rounded=0;entryX=1;entryY=1;entryDx=0;entryDy=0;" parent="1" target="5AUsYKZ6JyyaCuf6r-LG-96" edge="1">
          <mxGeometry width="50" height="50" relative="1" as="geometry">
            <mxPoint x="860" y="1270" as="sourcePoint" />
            <mxPoint x="780" y="1205" as="targetPoint" />
          </mxGeometry>
        </mxCell>
        <mxCell id="5AUsYKZ6JyyaCuf6r-LG-102" value="Managing Work Teams" style="edgeLabel;html=1;align=center;verticalAlign=middle;resizable=0;points=[];rotation=351;" parent="5AUsYKZ6JyyaCuf6r-LG-99" vertex="1" connectable="0">
          <mxGeometry x="0.5143" y="-1" relative="1" as="geometry">
            <mxPoint x="27" as="offset" />
          </mxGeometry>
        </mxCell>
        <mxCell id="5AUsYKZ6JyyaCuf6r-LG-104" value="Industry Development Department" style="shape=umlActor;verticalLabelPosition=bottom;verticalAlign=top;html=1;outlineConnect=0;" parent="1" vertex="1">
          <mxGeometry x="240" y="839" width="30" height="60" as="geometry" />
        </mxCell>
        <mxCell id="5AUsYKZ6JyyaCuf6r-LG-109" value="" style="endArrow=classic;html=1;rounded=0;entryX=0;entryY=0;entryDx=0;entryDy=0;" parent="1" target="5AUsYKZ6JyyaCuf6r-LG-29" edge="1">
          <mxGeometry width="50" height="50" relative="1" as="geometry">
            <mxPoint x="280" y="859" as="sourcePoint" />
            <mxPoint x="460" y="859" as="targetPoint" />
          </mxGeometry>
        </mxCell>
        <mxCell id="5AUsYKZ6JyyaCuf6r-LG-110" value="Validate Tool Request" style="edgeLabel;html=1;align=center;verticalAlign=middle;resizable=0;points=[];rotation=-15;" parent="5AUsYKZ6JyyaCuf6r-LG-109" vertex="1" connectable="0">
          <mxGeometry x="-0.3696" y="-1" relative="1" as="geometry">
            <mxPoint x="67" y="-21" as="offset" />
          </mxGeometry>
        </mxCell>
        <mxCell id="5AUsYKZ6JyyaCuf6r-LG-111" value="" style="endArrow=classic;html=1;rounded=0;entryX=0;entryY=0.25;entryDx=0;entryDy=0;" parent="1" target="5AUsYKZ6JyyaCuf6r-LG-29" edge="1">
          <mxGeometry width="50" height="50" relative="1" as="geometry">
            <mxPoint x="280" y="859" as="sourcePoint" />
            <mxPoint x="470" y="909" as="targetPoint" />
          </mxGeometry>
        </mxCell>
        <mxCell id="5AUsYKZ6JyyaCuf6r-LG-112" value="Send Tool Request" style="edgeLabel;html=1;align=center;verticalAlign=middle;resizable=0;points=[];rotation=-5;" parent="5AUsYKZ6JyyaCuf6r-LG-111" vertex="1" connectable="0">
          <mxGeometry x="-0.2066" y="1" relative="1" as="geometry">
            <mxPoint x="61" y="-2" as="offset" />
          </mxGeometry>
        </mxCell>
        <mxCell id="5AUsYKZ6JyyaCuf6r-LG-114" value="Security" style="shape=umlActor;verticalLabelPosition=bottom;verticalAlign=top;html=1;outlineConnect=0;" parent="1" vertex="1">
          <mxGeometry x="240" y="450" width="30" height="60" as="geometry" />
        </mxCell>
        <mxCell id="5AUsYKZ6JyyaCuf6r-LG-115" value="Time&amp;nbsp;Control&lt;br&gt;Management Department" style="shape=umlActor;verticalLabelPosition=bottom;verticalAlign=top;html=1;outlineConnect=0;" parent="1" vertex="1">
          <mxGeometry x="240" y="534" width="30" height="60" as="geometry" />
        </mxCell>
        <mxCell id="5AUsYKZ6JyyaCuf6r-LG-116" value="" style="endArrow=classic;html=1;rounded=0;entryX=0;entryY=0;entryDx=0;entryDy=0;" parent="1" target="5AUsYKZ6JyyaCuf6r-LG-93" edge="1">
          <mxGeometry width="50" height="50" relative="1" as="geometry">
            <mxPoint x="280" y="470" as="sourcePoint" />
            <mxPoint x="550" y="400" as="targetPoint" />
          </mxGeometry>
        </mxCell>
        <mxCell id="5AUsYKZ6JyyaCuf6r-LG-118" value="Accessing of Cameras" style="edgeLabel;html=1;align=center;verticalAlign=middle;resizable=0;points=[];rotation=5;" parent="5AUsYKZ6JyyaCuf6r-LG-116" vertex="1" connectable="0">
          <mxGeometry x="-0.5147" y="1" relative="1" as="geometry">
            <mxPoint x="51" y="6" as="offset" />
          </mxGeometry>
        </mxCell>
        <mxCell id="5AUsYKZ6JyyaCuf6r-LG-117" value="" style="endArrow=classic;html=1;rounded=0;entryX=0;entryY=0.5;entryDx=0;entryDy=0;" parent="1" target="5AUsYKZ6JyyaCuf6r-LG-93" edge="1">
          <mxGeometry width="50" height="50" relative="1" as="geometry">
            <mxPoint x="280" y="560" as="sourcePoint" />
            <mxPoint x="550" y="400" as="targetPoint" />
          </mxGeometry>
        </mxCell>
        <mxCell id="5AUsYKZ6JyyaCuf6r-LG-119" value="Monitoring Work Entry&lt;br&gt;and Departure times of Employees" style="edgeLabel;html=1;align=center;verticalAlign=middle;resizable=0;points=[];rotation=354;" parent="5AUsYKZ6JyyaCuf6r-LG-117" vertex="1" connectable="0">
          <mxGeometry x="-0.2306" y="-1" relative="1" as="geometry">
            <mxPoint x="13" y="-3" as="offset" />
          </mxGeometry>
        </mxCell>
        <mxCell id="5AUsYKZ6JyyaCuf6r-LG-121" value="Financial Department" style="shape=umlActor;verticalLabelPosition=bottom;verticalAlign=top;html=1;outlineConnect=0;" parent="1" vertex="1">
          <mxGeometry x="240" y="640" width="30" height="60" as="geometry" />
        </mxCell>
        <mxCell id="5AUsYKZ6JyyaCuf6r-LG-122" value="Specialized Tool Company" style="shape=umlActor;verticalLabelPosition=bottom;verticalAlign=top;html=1;outlineConnect=0;" parent="1" vertex="1">
          <mxGeometry x="240" y="740" width="30" height="60" as="geometry" />
        </mxCell>
        <mxCell id="5AUsYKZ6JyyaCuf6r-LG-123" value="&lt;font style=&quot;font-size: 6px;&quot;&gt;Financial Management&lt;/font&gt;" style="rounded=0;whiteSpace=wrap;html=1;" parent="1" vertex="1">
          <mxGeometry x="480" y="620" width="40" height="80" as="geometry" />
        </mxCell>
        <mxCell id="5AUsYKZ6JyyaCuf6r-LG-124" value="" style="endArrow=classic;html=1;rounded=0;entryX=0;entryY=0;entryDx=0;entryDy=0;" parent="1" target="5AUsYKZ6JyyaCuf6r-LG-123" edge="1">
          <mxGeometry width="50" height="50" relative="1" as="geometry">
            <mxPoint x="280" y="660" as="sourcePoint" />
            <mxPoint x="400" y="670" as="targetPoint" />
          </mxGeometry>
        </mxCell>
        <mxCell id="5AUsYKZ6JyyaCuf6r-LG-128" value="Displaying The Companys Financial Position" style="edgeLabel;html=1;align=center;verticalAlign=middle;resizable=0;points=[];rotation=349;fontSize=8;" parent="5AUsYKZ6JyyaCuf6r-LG-124" vertex="1" connectable="0">
          <mxGeometry x="-0.4858" relative="1" as="geometry">
            <mxPoint x="59" y="-12" as="offset" />
          </mxGeometry>
        </mxCell>
        <mxCell id="5AUsYKZ6JyyaCuf6r-LG-125" value="" style="endArrow=classic;html=1;rounded=0;entryX=0;entryY=0.5;entryDx=0;entryDy=0;" parent="1" target="5AUsYKZ6JyyaCuf6r-LG-123" edge="1">
          <mxGeometry width="50" height="50" relative="1" as="geometry">
            <mxPoint x="280" y="660" as="sourcePoint" />
            <mxPoint x="400" y="670" as="targetPoint" />
          </mxGeometry>
        </mxCell>
        <mxCell id="5AUsYKZ6JyyaCuf6r-LG-127" value="Managing The Salaries of All Employees" style="edgeLabel;html=1;align=center;verticalAlign=middle;resizable=0;points=[];fontSize=8;" parent="5AUsYKZ6JyyaCuf6r-LG-125" vertex="1" connectable="0">
          <mxGeometry x="-0.306" relative="1" as="geometry">
            <mxPoint x="40" as="offset" />
          </mxGeometry>
        </mxCell>
        <mxCell id="5AUsYKZ6JyyaCuf6r-LG-129" value="" style="endArrow=classic;html=1;rounded=0;entryX=0;entryY=0;entryDx=0;entryDy=0;" parent="1" target="5AUsYKZ6JyyaCuf6r-LG-29" edge="1">
          <mxGeometry width="50" height="50" relative="1" as="geometry">
            <mxPoint x="280" y="760" as="sourcePoint" />
            <mxPoint x="390" y="680" as="targetPoint" />
            <Array as="points">
              <mxPoint x="480" y="760" />
            </Array>
          </mxGeometry>
        </mxCell>
        <mxCell id="5AUsYKZ6JyyaCuf6r-LG-131" value="&lt;font style=&quot;font-size: 10px;&quot;&gt;Contacting Specialized Tool Companies&lt;/font&gt;" style="edgeLabel;html=1;align=center;verticalAlign=middle;resizable=0;points=[];" parent="5AUsYKZ6JyyaCuf6r-LG-129" vertex="1" connectable="0">
          <mxGeometry x="-0.6283" y="-2" relative="1" as="geometry">
            <mxPoint x="37" y="-3" as="offset" />
          </mxGeometry>
        </mxCell>
        <mxCell id="5AUsYKZ6JyyaCuf6r-LG-130" value="" style="endArrow=classic;html=1;rounded=0;entryX=0.25;entryY=0;entryDx=0;entryDy=0;" parent="1" target="5AUsYKZ6JyyaCuf6r-LG-29" edge="1">
          <mxGeometry width="50" height="50" relative="1" as="geometry">
            <mxPoint x="280" y="660" as="sourcePoint" />
            <mxPoint x="500" y="760" as="targetPoint" />
            <Array as="points">
              <mxPoint x="490" y="720" />
            </Array>
          </mxGeometry>
        </mxCell>
        <mxCell id="5AUsYKZ6JyyaCuf6r-LG-132" value="&lt;font style=&quot;font-size: 9px;&quot;&gt;Contacting Specialized Tool Companies&lt;/font&gt;" style="edgeLabel;html=1;align=center;verticalAlign=middle;resizable=0;points=[];rotation=15;" parent="5AUsYKZ6JyyaCuf6r-LG-130" vertex="1" connectable="0">
          <mxGeometry x="-0.3777" relative="1" as="geometry">
            <mxPoint as="offset" />
          </mxGeometry>
        </mxCell>
        <mxCell id="5AUsYKZ6JyyaCuf6r-LG-133" value="" style="endArrow=classic;html=1;rounded=0;entryX=0;entryY=0;entryDx=0;entryDy=0;" parent="1" target="5AUsYKZ6JyyaCuf6r-LG-29" edge="1">
          <mxGeometry width="50" height="50" relative="1" as="geometry">
            <mxPoint x="280" y="760" as="sourcePoint" />
            <mxPoint x="480" y="720" as="targetPoint" />
          </mxGeometry>
        </mxCell>
        <mxCell id="5AUsYKZ6JyyaCuf6r-LG-134" value="Validate Tool Request" style="edgeLabel;html=1;align=center;verticalAlign=middle;resizable=0;points=[];rotation=10;" parent="5AUsYKZ6JyyaCuf6r-LG-133" vertex="1" connectable="0">
          <mxGeometry x="-0.1638" y="-1" relative="1" as="geometry">
            <mxPoint x="37" y="9" as="offset" />
          </mxGeometry>
        </mxCell>
        <mxCell id="5xZvFCeSpVlh9QyVR8qn-2" value="&lt;font style=&quot;font-size: 6px;&quot;&gt;HR&lt;br&gt;Management&lt;br&gt;&lt;/font&gt;" style="rounded=0;whiteSpace=wrap;html=1;" vertex="1" parent="1">
          <mxGeometry x="610" y="580" width="40" height="130" as="geometry" />
        </mxCell>
        <mxCell id="5xZvFCeSpVlh9QyVR8qn-3" value="Department" style="shape=umlActor;verticalLabelPosition=bottom;verticalAlign=top;html=1;outlineConnect=0;" vertex="1" parent="1">
          <mxGeometry x="880" y="594" width="30" height="60" as="geometry" />
        </mxCell>
        <mxCell id="5xZvFCeSpVlh9QyVR8qn-4" value="" style="endArrow=classic;html=1;rounded=0;entryX=1;entryY=0.25;entryDx=0;entryDy=0;" edge="1" parent="1" target="5xZvFCeSpVlh9QyVR8qn-2">
          <mxGeometry width="50" height="50" relative="1" as="geometry">
            <mxPoint x="870" y="610" as="sourcePoint" />
            <mxPoint x="650" y="580" as="targetPoint" />
          </mxGeometry>
        </mxCell>
        <mxCell id="5xZvFCeSpVlh9QyVR8qn-5" value="Send Hiaring Request" style="edgeLabel;html=1;align=center;verticalAlign=middle;resizable=0;points=[];rotation=0;" vertex="1" connectable="0" parent="5xZvFCeSpVlh9QyVR8qn-4">
          <mxGeometry x="0.3452" y="1" relative="1" as="geometry">
            <mxPoint x="-2" y="3" as="offset" />
          </mxGeometry>
        </mxCell>
        <mxCell id="5xZvFCeSpVlh9QyVR8qn-7" value="Department" style="shape=umlActor;verticalLabelPosition=bottom;verticalAlign=top;html=1;outlineConnect=0;" vertex="1" parent="1">
          <mxGeometry x="970" y="1220" width="30" height="60" as="geometry" />
        </mxCell>
        <mxCell id="5xZvFCeSpVlh9QyVR8qn-8" value="" style="endArrow=classic;html=1;rounded=0;entryX=1;entryY=0;entryDx=0;entryDy=0;" edge="1" parent="1" target="5AUsYKZ6JyyaCuf6r-LG-96">
          <mxGeometry width="50" height="50" relative="1" as="geometry">
            <mxPoint x="960" y="1241" as="sourcePoint" />
            <mxPoint x="750" y="1210" as="targetPoint" />
          </mxGeometry>
        </mxCell>
        <mxCell id="5xZvFCeSpVlh9QyVR8qn-9" value="Manage Task Distribution" style="edgeLabel;html=1;align=center;verticalAlign=middle;resizable=0;points=[];rotation=3;" vertex="1" connectable="0" parent="5xZvFCeSpVlh9QyVR8qn-8">
          <mxGeometry x="0.7794" y="-1" relative="1" as="geometry">
            <mxPoint x="56" y="6" as="offset" />
          </mxGeometry>
        </mxCell>
        <mxCell id="5xZvFCeSpVlh9QyVR8qn-10" value="" style="endArrow=classic;html=1;rounded=0;entryX=1;entryY=0.5;entryDx=0;entryDy=0;" edge="1" parent="1" target="5xZvFCeSpVlh9QyVR8qn-2">
          <mxGeometry width="50" height="50" relative="1" as="geometry">
            <mxPoint x="870" y="610" as="sourcePoint" />
            <mxPoint x="620" y="662" as="targetPoint" />
          </mxGeometry>
        </mxCell>
        <mxCell id="5xZvFCeSpVlh9QyVR8qn-11" value="Managing Employee Promotion" style="edgeLabel;html=1;align=center;verticalAlign=middle;resizable=0;points=[];rotation=352;" vertex="1" connectable="0" parent="5xZvFCeSpVlh9QyVR8qn-10">
          <mxGeometry x="0.3768" relative="1" as="geometry">
            <mxPoint x="21" as="offset" />
          </mxGeometry>
        </mxCell>
        <mxCell id="5xZvFCeSpVlh9QyVR8qn-14" value="HR Department" style="shape=umlActor;verticalLabelPosition=bottom;verticalAlign=top;html=1;outlineConnect=0;" vertex="1" parent="1">
          <mxGeometry x="820" y="650" width="30" height="60" as="geometry" />
        </mxCell>
        <mxCell id="5xZvFCeSpVlh9QyVR8qn-15" value="" style="endArrow=classic;html=1;rounded=0;entryX=0.985;entryY=0.671;entryDx=0;entryDy=0;exitX=0;exitY=0.3333333333333333;exitDx=0;exitDy=0;exitPerimeter=0;entryPerimeter=0;" edge="1" parent="1" source="5xZvFCeSpVlh9QyVR8qn-14" target="5xZvFCeSpVlh9QyVR8qn-2">
          <mxGeometry width="50" height="50" relative="1" as="geometry">
            <mxPoint x="880" y="620" as="sourcePoint" />
            <mxPoint x="660" y="623" as="targetPoint" />
          </mxGeometry>
        </mxCell>
        <mxCell id="5xZvFCeSpVlh9QyVR8qn-16" value="Managing Employee Promotion" style="edgeLabel;html=1;align=center;verticalAlign=middle;resizable=0;points=[];rotation=0;" vertex="1" connectable="0" parent="5xZvFCeSpVlh9QyVR8qn-15">
          <mxGeometry x="0.3768" relative="1" as="geometry">
            <mxPoint x="38" y="2" as="offset" />
          </mxGeometry>
        </mxCell>
        <mxCell id="5xZvFCeSpVlh9QyVR8qn-20" value="" style="endArrow=classic;html=1;rounded=0;entryX=-0.067;entryY=0.932;entryDx=0;entryDy=0;entryPerimeter=0;" edge="1" parent="1" target="5AUsYKZ6JyyaCuf6r-LG-29">
          <mxGeometry width="50" height="50" relative="1" as="geometry">
            <mxPoint x="170" y="1230" as="sourcePoint" />
            <mxPoint x="-50" y="1070" as="targetPoint" />
            <Array as="points">
              <mxPoint x="230" y="1110" />
              <mxPoint x="250" y="1080" />
            </Array>
          </mxGeometry>
        </mxCell>
        <mxCell id="5xZvFCeSpVlh9QyVR8qn-21" value="Send Maintenance Request" style="edgeLabel;html=1;align=center;verticalAlign=middle;resizable=0;points=[];rotation=335;" vertex="1" connectable="0" parent="5xZvFCeSpVlh9QyVR8qn-20">
          <mxGeometry x="0.1153" y="1" relative="1" as="geometry">
            <mxPoint x="21" y="-10" as="offset" />
          </mxGeometry>
        </mxCell>
        <mxCell id="5xZvFCeSpVlh9QyVR8qn-22" value="Maintenance Department" style="shape=umlActor;verticalLabelPosition=bottom;verticalAlign=top;html=1;outlineConnect=0;" vertex="1" parent="1">
          <mxGeometry x="130" y="1211" width="30" height="60" as="geometry" />
        </mxCell>
        <mxCell id="5xZvFCeSpVlh9QyVR8qn-23" value="Employee" style="shape=umlActor;verticalLabelPosition=bottom;verticalAlign=top;html=1;outlineConnect=0;" vertex="1" parent="1">
          <mxGeometry x="150" y="1030" width="30" height="60" as="geometry" />
        </mxCell>
        <mxCell id="5xZvFCeSpVlh9QyVR8qn-24" value="" style="endArrow=classic;html=1;rounded=0;" edge="1" parent="1">
          <mxGeometry width="50" height="50" relative="1" as="geometry">
            <mxPoint x="190" y="1050" as="sourcePoint" />
            <mxPoint x="470" y="900" as="targetPoint" />
          </mxGeometry>
        </mxCell>
        <mxCell id="5xZvFCeSpVlh9QyVR8qn-25" value="Send Employee Request" style="edgeLabel;html=1;align=center;verticalAlign=middle;resizable=0;points=[];rotation=333;" vertex="1" connectable="0" parent="5xZvFCeSpVlh9QyVR8qn-24">
          <mxGeometry x="-0.1008" relative="1" as="geometry">
            <mxPoint x="21" y="-13" as="offset" />
          </mxGeometry>
        </mxCell>
        <mxCell id="5xZvFCeSpVlh9QyVR8qn-28" value="" style="endArrow=classic;html=1;rounded=0;entryX=0;entryY=0.67;entryDx=0;entryDy=0;entryPerimeter=0;" edge="1" parent="1" target="5AUsYKZ6JyyaCuf6r-LG-29">
          <mxGeometry width="50" height="50" relative="1" as="geometry">
            <mxPoint x="190" y="1050" as="sourcePoint" />
            <mxPoint x="388" y="1080.05" as="targetPoint" />
          </mxGeometry>
        </mxCell>
        <mxCell id="5xZvFCeSpVlh9QyVR8qn-29" value="Send Maintenace Request" style="edgeLabel;html=1;align=center;verticalAlign=middle;resizable=0;points=[];rotation=336;" vertex="1" connectable="0" parent="5xZvFCeSpVlh9QyVR8qn-28">
          <mxGeometry x="-0.0528" relative="1" as="geometry">
            <mxPoint x="83" y="-39" as="offset" />
          </mxGeometry>
        </mxCell>
      </root>
    </mxGraphModel>
  </diagram>
</mxfile>
